<?xml version="1.0" encoding="UTF-8"?><svg id="uuid-67268841-e29e-4245-a337-8c120bd0aa93" xmlns="http://www.w3.org/2000/svg" viewBox="0 0 100 42.52"><g opacity=".15"><path d="M50,18.27c-.11-3.04-.08-6.09-.12-9.13.04-3.04.02-6.09.12-9.13.11,3.04.08,6.09.12,9.13-.04,3.04-.02,6.09-.12,9.13Z" fill="#00bde2"/><path d="M42.91,18.27c-1.86-2.98-3.61-6.04-5.41-9.07-1.75-3.06-3.52-6.1-5.2-9.2.93,1.49,1.84,3,2.72,4.53l2.69,4.54,2.61,4.59,1.31,2.29,1.28,2.32Z" fill="#00bde2"/><path d="M35.81,18.27c-3.61-2.95-7.13-6.03-10.69-9.04-3.51-3.08-7.07-6.1-10.54-9.23,3.6,2.97,7.13,6.03,10.69,9.04,3.51,3.08,7.06,6.11,10.54,9.23Z" fill="#00bde2"/><path d="M57.09,18.27l1.28-2.32,1.31-2.29,2.61-4.59,2.69-4.54c.88-1.52,1.79-3.03,2.72-4.53-1.69,3.1-3.46,6.14-5.2,9.2-1.8,3.02-3.55,6.08-5.41,9.07Z" fill="#00bde2"/><path d="M64.19,18.27c3.48-3.12,7.02-6.16,10.54-9.23,3.57-3.01,7.09-6.07,10.69-9.04-3.47,3.14-7.03,6.15-10.54,9.23-3.57,3.01-7.08,6.08-10.69,9.04Z" fill="#00bde2"/><polygon points="100 2.31 50 2.44 0 2.31 50 2.18 100 2.31" fill="#00bde2"/><path d="M93.53,5.82c-14.51.11-29.02.08-43.53.13-14.51-.05-29.02-.02-43.53-.13,14.51-.11,29.02-.08,43.53-.13,14.51.05,29.02.02,43.53.13Z" fill="#00bde2"/><path d="M88.42,8.6c-12.81.11-25.61.08-38.42.13-12.81-.05-25.61-.02-38.42-.13,12.81-.11,25.61-.08,38.42-.13,12.81.05,25.61.02,38.42.13Z" fill="#00bde2"/><path d="M84.34,10.82c-11.45.11-22.89.08-34.34.13-11.45-.05-22.89-.02-34.34-.13,11.45-.11,22.89-.08,34.34-.13,11.45.05,22.89.02,34.34.13Z" fill="#00bde2"/><path d="M81.07,12.6c-10.36.11-20.71.08-31.07.13-10.36-.05-20.71-.02-31.07-.13,10.36-.11,20.71-.08,31.07-.13,10.36.05,20.71.02,31.07.13Z" fill="#00bde2"/><path d="M78.82,13.81c-9.61.11-19.21.08-28.82.13-9.61-.05-19.21-.02-28.82-.13,9.61-.11,19.21-.08,28.82-.13,9.61.05,19.21.02,28.82.13Z" fill="#00bde2"/><path d="M76.37,15.15c-8.79.11-17.58.08-26.37.13-8.79-.05-17.58-.02-26.37-.13,8.79-.11,17.58-.08,26.37-.13,8.79.05,17.58.02,26.37.13Z" fill="#00bde2"/><path d="M74.33,16.26c-8.11.11-16.22.08-24.33.13-8.11-.05-16.22-.02-24.33-.13,8.11-.11,16.22-.08,24.33-.13,8.11.05,16.22.02,24.33.13Z" fill="#00bde2"/><path d="M72.68,17.15c-7.56.11-15.12.08-22.68.13-7.56-.05-15.12-.02-22.68-.13,7.56-.11,15.12-.08,22.68-.13,7.56.05,15.12.02,22.68.13Z" fill="#00bde2"/><path d="M50,24.26c-.11,3.04-.08,6.09-.12,9.13.04,3.04.02,6.09.12,9.13.11-3.04.08-6.09.12-9.13-.04-3.04-.02-6.09-.12-9.13Z" fill="#00bde2"/><path d="M42.91,24.26c-1.86,2.98-3.61,6.04-5.41,9.07-1.75,3.06-3.52,6.1-5.2,9.2.93-1.49,1.84-3,2.72-4.53l2.69-4.54,2.61-4.59,1.31-2.29,1.28-2.32Z" fill="#00bde2"/><path d="M35.81,24.26c-3.61,2.95-7.13,6.03-10.69,9.04-3.51,3.08-7.07,6.1-10.54,9.23,3.6-2.97,7.13-6.03,10.69-9.04,3.51-3.08,7.06-6.11,10.54-9.23Z" fill="#00bde2"/><path d="M57.09,24.26l1.28,2.32,1.31,2.29,2.61,4.59,2.69,4.54c.88,1.52,1.79,3.03,2.72,4.53-1.69-3.1-3.46-6.14-5.2-9.2-1.8-3.02-3.55-6.08-5.41-9.07Z" fill="#00bde2"/><path d="M64.19,24.26c3.48,3.12,7.02,6.16,10.54,9.23,3.57,3.01,7.09,6.07,10.69,9.04-3.47-3.14-7.03-6.15-10.54-9.23-3.57-3.01-7.08-6.08-10.69-9.04Z" fill="#00bde2"/><polygon points="100 40.22 50 40.09 0 40.22 50 40.35 100 40.22" fill="#00bde2"/><path d="M93.53,36.7c-14.51-.11-29.02-.08-43.53-.13-14.51.05-29.02.02-43.53.13,14.51.11,29.02.08,43.53.13,14.51-.05,29.02-.02,43.53-.13Z" fill="#00bde2"/><path d="M88.42,33.92c-12.81-.11-25.61-.08-38.42-.13-12.81.05-25.61.02-38.42.13,12.81.11,25.61.08,38.42.13,12.81-.05,25.61-.02,38.42-.13Z" fill="#00bde2"/><path d="M84.34,31.7c-11.45-.11-22.89-.08-34.34-.13-11.45.05-22.89.02-34.34.13,11.45.11,22.89.08,34.34.13,11.45-.05,22.89-.02,34.34-.13Z" fill="#00bde2"/><path d="M81.07,29.93c-10.36-.11-20.71-.08-31.07-.13-10.36.05-20.71.02-31.07.13,10.36.11,20.71.08,31.07.13,10.36-.05,20.71-.02,31.07-.13Z" fill="#00bde2"/><path d="M78.82,28.71c-9.61-.11-19.21-.08-28.82-.13-9.61.05-19.21.02-28.82.13,9.61.11,19.21.08,28.82.13,9.61-.05,19.21-.02,28.82-.13Z" fill="#00bde2"/><path d="M76.37,27.38c-8.79-.11-17.58-.08-26.37-.13-8.79.05-17.58.02-26.37.13,8.79.11,17.58.08,26.37.13,8.79-.05,17.58-.02,26.37-.13Z" fill="#00bde2"/><path d="M74.33,26.27c-8.11-.11-16.22-.08-24.33-.13-8.11.05-16.22.02-24.33.13,8.11.11,16.22.08,24.33.13,8.11-.05,16.22-.02,24.33-.13Z" fill="#00bde2"/><path d="M72.68,25.37c-7.56-.11-15.12-.08-22.68-.13-7.56.05-15.12.02-22.68.13,7.56.11,15.12.08,22.68.13,7.56-.05,15.12-.02,22.68-.13Z" fill="#00bde2"/></g></svg>