<?xml version="1.0" encoding="UTF-8"?><svg id="uuid-46b0796e-e3fb-4059-abf0-ed65a419ad6d" xmlns="http://www.w3.org/2000/svg" viewBox="0 0 32 32"><path d="M3.12,15.87h3.58c.29,0,.54-.04.54-.35,0-.27-.28-.3-.46-.3h-3.74c-.2,0-.46.03-.46.3,0,.31.25.35.54.35Z" fill="none"/><path d="M4.8,25.39H1.9v.51h2.93c.26,0,.38-.07.38-.26,0-.17-.12-.25-.42-.25Z" fill="none"/><path d="M3.07,18.33h3.67c.35,0,.51-.1.51-.34s-.13-.37-.59-.37h-3.53c-.44,0-.59.12-.59.37s.17.34.52.34Z" fill="none"/><path d="M15.64,18.42c1.72,0,2.29-.21,2.29-1.67s-.56-1.66-2.29-1.66-2.3.19-2.3,1.66.58,1.67,2.3,1.67Z" fill="none"/><path d="M.25,12.34s.02,0,.02,0h5.08c2.73,0,4.79-1.73,4.79-4.02s-2.01-3.87-4.79-3.87H1.9c-.06,0-.12.03-.16.08L.09,6.72c-.05.06-.05.14-.02.21.03.07.1.11.18.11h5.1c.43,0,1.81.09,1.81,1.29,0,.99-.59,1.47-1.81,1.47h-2.31v-2.32c0-.11-.09-.2-.2-.2H.25c-.11,0-.2.09-.2.2v4.67c0,.11.09.2.2.2Z" fill="#ec008c"/><path d="M12.08,12.34h2.6c.11,0,.2-.09.2-.2v-2.44h3.75c.06,0,.12-.03.16-.08l1.58-2.03c.05-.06.06-.14.02-.21-.03-.07-.1-.11-.18-.11h-5.33v-.24h4.09c.06,0,.12-.03.16-.08l1.67-2.18c.05-.06.05-.14.02-.21-.03-.07-.1-.11-.18-.11h-8.55c-.11,0-.2.09-.2.2v7.49c0,.11.09.2.2.2Z" fill="#ec008c"/><path d="M31.98,4.57c-.03-.07-.1-.11-.18-.11h-8.46c-.06,0-.12.03-.16.08l-1.68,2.18c-.05.06-.05.14-.02.21s.1.11.18.11h3.2v5.08s0,.02,0,.02c0,.11.09.2.2.2h2.6c.11,0,.2-.09.2-.2v-5.11h2.26c.06,0,.12-.03.16-.08l1.68-2.18c.05-.06.05-.14.02-.21Z" fill="#ec008c"/><path d="M3.08,20.46s3.65,0,3.65,0c2.42,0,3.07-.93,3.07-2.18,0-.86-.46-1.43-1.12-1.63.5-.2.97-.66.97-1.54,0-1.37-1.18-2.06-3.01-2.06h-3.52c-1.8,0-2.99.69-2.99,2.06,0,.87.46,1.34.97,1.54C.48,16.85,0,17.42,0,18.28,0,19.53.66,20.46,3.08,20.46ZM3.04,15.22h3.74c.19,0,.46.03.46.3,0,.31-.25.35-.54.35h-3.58c-.29,0-.54-.05-.54-.35,0-.27.27-.3.46-.3ZM3.14,17.63h3.53c.45,0,.59.12.59.37s-.15.34-.51.34h-3.67c-.35,0-.52-.1-.52-.34s.14-.37.59-.37Z" fill="#00aeef"/><path d="M15.64,20.58c3.21,0,4.82-1.18,4.82-3.83s-1.6-3.81-4.82-3.81-4.83,1.17-4.83,3.81,1.61,3.83,4.83,3.83ZM15.64,15.09c1.73,0,2.29.2,2.29,1.66s-.56,1.67-2.29,1.67-2.3-.2-2.3-1.67.57-1.66,2.3-1.66Z" fill="#00aeef"/><path d="M28.7,15.94h-4.2c-.34,0-.52-.1-.52-.37s.18-.35.52-.35h5.12l1.65-2.16h-6.52c-2.31,0-3.24.86-3.24,2.36,0,1.25.87,2.15,2.79,2.15h4.18c.35,0,.54.12.54.39s-.19.39-.52.39h-5.58l-1.65,2.12h7.2c2.29,0,3.02-.95,3.02-2.48,0-1.35-.98-2.05-2.78-2.05Z" fill="#00aeef"/><path d="M6.24,24.69c.38-.14.71-.48.71-1.11,0-.99-.86-1.49-2.17-1.49H1.29L.04,23.65h4.82c.14,0,.34.02.34.22,0,.22-.19.26-.36.26H.05v3.32H.05s4.78,0,4.78,0c1.75,0,2.24-.67,2.24-1.57,0-.62-.35-1.03-.82-1.18ZM4.84,25.9H1.9v-.51h2.9c.3,0,.42.08.42.25,0,.19-.12.26-.38.26Z" fill="#f2ea28"/><path d="M11.65,22c-.58,0-.94.32-1.19.68l-3.42,4.76h2.19l2.39-3.33.9,1.3c.11.17.29.42.37.5-.17-.02-.47-.02-.73-.02h-1.2l-1.12,1.53h6.32l-3.33-4.76c-.26-.38-.61-.68-1.18-.68Z" fill="#f2ea28"/><path d="M21.53,24.97l-3.03-2.66c-.3-.26-.51-.31-.74-.31-.54,0-1.01.33-1.01,1.13v4.32h1.68v-2.87h0l3.02,2.65c.3.26.5.32.74.32.54,0,1.02-.33,1.02-1.13v-4.32h-1.68v2.88Z" fill="#f2ea28"/><path d="M27.89,22.09h-2.47l-1.18,1.56h3.65c.81,0,1.44.34,1.44,1.06,0,.88-.6,1.19-1.44,1.19h-1.79v-1.8h-1.85v3.33h3.65c1.89,0,3.28-1.18,3.28-2.73s-1.37-2.62-3.28-2.62Z" fill="#f2ea28"/></svg>