<?xml version="1.0" encoding="UTF-8"?><svg id="uuid-3c2e9b2e-b473-4a3d-a0d3-2a1c0674b5c1" xmlns="http://www.w3.org/2000/svg" viewBox="0 0 32 32"><rect width="32" height="32" fill="#231f20"/><path d="M4.57,15.88h3.26c.26,0,.49-.04.49-.32,0-.24-.25-.27-.42-.27h-3.4c-.18,0-.42.03-.42.27,0,.28.23.32.49.32Z" fill="none"/><path d="M6.1,24.54h-2.64v.47h2.67c.24,0,.35-.07.35-.24,0-.15-.11-.23-.38-.23Z" fill="none"/><path d="M4.53,18.12h3.34c.32,0,.46-.09.46-.31s-.12-.33-.53-.33h-3.21c-.4,0-.53.11-.53.33s.15.31.47.31Z" fill="none"/><path d="M15.95,18.2c1.57,0,2.08-.19,2.08-1.52s-.51-1.51-2.08-1.51-2.09.17-2.09,1.51.52,1.52,2.09,1.52Z" fill="none"/><path d="M1.97,12.68s.01,0,.02,0h4.62c2.48,0,4.35-1.57,4.35-3.65s-1.83-3.52-4.35-3.52h-3.14c-.06,0-.11.03-.15.07l-1.5,1.98c-.04.05-.05.13-.02.19.03.06.09.1.16.1h4.64c.39,0,1.65.08,1.65,1.17,0,.9-.54,1.33-1.65,1.33h-2.1v-2.11c0-.1-.08-.18-.18-.18H1.97c-.1,0-.18.08-.18.18v4.24c0,.1.08.18.18.18Z" fill="#ec008c"/><path d="M12.72,12.68h2.36c.1,0,.18-.08.18-.18v-2.22h3.41c.06,0,.11-.03.14-.07l1.43-1.84c.04-.05.05-.13.02-.19-.03-.06-.09-.1-.16-.1h-4.84v-.22h3.71c.06,0,.11-.03.14-.07l1.52-1.98c.04-.05.05-.13.02-.19-.03-.06-.09-.1-.16-.1h-7.77c-.1,0-.18.08-.18.18v6.8c0,.1.08.18.18.18Z" fill="#ec008c"/><path d="M30.8,5.61c-.03-.06-.09-.1-.16-.1h-7.69c-.06,0-.11.03-.14.07l-1.53,1.98c-.04.05-.05.13-.02.19s.09.1.16.1h2.91v4.62s0,.01,0,.02c0,.1.08.18.18.18h2.36c.1,0,.18-.08.18-.18v-4.64h2.06c.06,0,.11-.03.14-.07l1.53-1.98c.04-.05.05-.13.02-.19Z" fill="#ec008c"/><path d="M4.54,20.05s3.32,0,3.32,0c2.2,0,2.79-.84,2.79-1.98,0-.78-.42-1.3-1.01-1.48.45-.18.88-.6.88-1.4,0-1.25-1.08-1.87-2.73-1.87h-3.2c-1.64,0-2.71.62-2.71,1.87,0,.79.42,1.22.88,1.4-.59.18-1.02.69-1.02,1.48,0,1.14.6,1.98,2.8,1.98ZM4.5,15.29h3.4c.17,0,.42.03.42.27,0,.28-.23.32-.49.32h-3.26c-.26,0-.49-.04-.49-.32,0-.24.24-.27.42-.27ZM4.59,17.48h3.21c.41,0,.53.11.53.33s-.14.31-.46.31h-3.34c-.32,0-.47-.09-.47-.31s.13-.33.53-.33Z" fill="#00aeef"/><path d="M15.95,20.16c2.91,0,4.38-1.08,4.38-3.48s-1.46-3.47-4.38-3.47-4.39,1.06-4.39,3.47,1.47,3.48,4.39,3.48ZM15.95,15.18c1.57,0,2.08.18,2.08,1.51s-.51,1.52-2.08,1.52-2.09-.18-2.09-1.52.52-1.51,2.09-1.51Z" fill="#00aeef"/><path d="M27.82,15.94h-3.82c-.31,0-.47-.09-.47-.33s.16-.32.47-.32h4.65l1.5-1.96h-5.93c-2.1,0-2.95.78-2.95,2.14,0,1.14.79,1.95,2.53,1.95h3.8c.32,0,.49.11.49.35s-.17.35-.47.35h-5.08l-1.5,1.93h6.54c2.08,0,2.74-.86,2.74-2.25,0-1.23-.89-1.86-2.52-1.86Z" fill="#00aeef"/><path d="M7.41,23.9c.34-.13.65-.44.65-1.01,0-.9-.78-1.35-1.97-1.35h-3.18l-1.14,1.42h4.38c.13,0,.31.02.31.2,0,.2-.17.23-.33.23H1.78v3.02h0s4.35,0,4.35,0c1.59,0,2.03-.61,2.03-1.43,0-.57-.32-.94-.75-1.07ZM6.13,25h-2.67v-.47h2.64c.27,0,.38.07.38.23,0,.17-.11.24-.35.24Z" fill="#f2ea28"/><path d="M12.32,21.45c-.52,0-.85.29-1.08.62l-3.11,4.33h1.99l2.17-3.02.81,1.18c.1.15.26.38.33.46-.15-.01-.43-.01-.66-.01h-1.09l-1.02,1.4h5.75l-3.02-4.33c-.24-.35-.55-.62-1.08-.62Z" fill="#f2ea28"/><path d="M21.31,24.15l-2.75-2.42c-.27-.23-.47-.28-.67-.28-.49,0-.92.3-.92,1.02v3.92h1.53v-2.61h0l2.75,2.41c.27.23.46.29.67.29.49,0,.92-.3.92-1.02v-3.93h-1.53v2.62Z" fill="#f2ea28"/><path d="M27.09,21.54h-2.25l-1.07,1.42h3.31c.73,0,1.31.31,1.31.97,0,.8-.54,1.08-1.31,1.08h-1.63v-1.63h-1.69v3.03h3.31c1.71,0,2.98-1.08,2.98-2.48s-1.25-2.38-2.98-2.38Z" fill="#f2ea28"/></svg>